{
	"asset":{
		"generator":"Khronos glTF Blender I/O v5.1.18",
		"version":"2.0"
	},
	"scene":0,
	"scenes":[
		{
			"extras":{
				"subrect_atlas1":{},
				"duv_hotspotmaterial1":{},
				"trim_atlas":{},
				"uv_box":{},
				"uvtransferymin":3.1499998569488525,
				"uvtransferxmin":1.2599999904632568,
				"uvinsetpixels":23.709999084472656
			},
			"name":"Scene",
			"nodes":[
				0,
				1
			]
		}
	],
	"nodes":[
		{
			"extras":{
				"classname":"terrain",
				"override_up":false,
				"override_angle":true,
				"max_angle":0.0,
				"sound":"1.0"
			},
			"mesh":0,
			"name":"Terrain"
		},
		{
			"extras":{
				"classname":"terrain",
				"override_up":true,
				"override_angle":true,
				"max_angle":3.141590118408203,
				"sound":"1.0"
			},
			"mesh":1,
			"name":"Terrain.001"
		}
	],
	"materials":[
		{
			"doubleSided":true,
			"name":"carpet01",
			"pbrMetallicRoughness":{
				"baseColorFactor":[
					0.800000011920929,
					0.800000011920929,
					0.800000011920929,
					1
				],
				"metallicFactor":0,
				"roughnessFactor":0.5
			}
		},
		{
			"doubleSided":true,
			"name":"N006",
			"pbrMetallicRoughness":{
				"baseColorFactor":[
					0.800000011920929,
					0.800000011920929,
					0.800000011920929,
					1
				],
				"metallicFactor":0,
				"roughnessFactor":0.5
			}
		}
	],
	"meshes":[
		{
			"extras":{
				"classname":"terrain",
				"override_up":true,
				"override_angle":true,
				"max_angle":1.5707963705062866,
				"sound":""
			},
			"name":"Cube.001",
			"primitives":[
				{
					"attributes":{
						"POSITION":0,
						"NORMAL":1,
						"TEXCOORD_0":2
					},
					"indices":3,
					"material":0
				}
			]
		},
		{
			"extras":{
				"classname":"terrain",
				"override_up":true,
				"override_angle":true,
				"max_angle":1.5707963705062866,
				"sound":""
			},
			"name":"Cube.003",
			"primitives":[
				{
					"attributes":{
						"POSITION":4,
						"NORMAL":5,
						"TEXCOORD_0":6
					},
					"indices":7,
					"material":1
				}
			]
		}
	],
	"accessors":[
		{
			"bufferView":0,
			"componentType":5126,
			"count":111,
			"max":[
				10.00000286102295,
				9.00000286102295,
				-1
			],
			"min":[
				-9.99999713897705,
				6.999999523162842,
				-13.000000953674316
			],
			"type":"VEC3"
		},
		{
			"bufferView":1,
			"componentType":5126,
			"count":111,
			"type":"VEC3"
		},
		{
			"bufferView":2,
			"componentType":5126,
			"count":111,
			"type":"VEC2"
		},
		{
			"bufferView":3,
			"componentType":5123,
			"count":342,
			"type":"SCALAR"
		},
		{
			"bufferView":4,
			"componentType":5126,
			"count":266,
			"max":[
				19.687511444091797,
				177.15628051757812,
				13.458332061767578
			],
			"min":[
				-19.6874942779541,
				-1.0000003576278687,
				-25.91666603088379
			],
			"type":"VEC3"
		},
		{
			"bufferView":5,
			"componentType":5126,
			"count":266,
			"type":"VEC3"
		},
		{
			"bufferView":6,
			"componentType":5126,
			"count":266,
			"type":"VEC2"
		},
		{
			"bufferView":7,
			"componentType":5123,
			"count":459,
			"type":"SCALAR"
		}
	],
	"bufferViews":[
		{
			"buffer":0,
			"byteLength":1332,
			"byteOffset":0,
			"target":34962
		},
		{
			"buffer":0,
			"byteLength":1332,
			"byteOffset":1332,
			"target":34962
		},
		{
			"buffer":0,
			"byteLength":888,
			"byteOffset":2664,
			"target":34962
		},
		{
			"buffer":0,
			"byteLength":684,
			"byteOffset":3552,
			"target":34963
		},
		{
			"buffer":0,
			"byteLength":3192,
			"byteOffset":4236,
			"target":34962
		},
		{
			"buffer":0,
			"byteLength":3192,
			"byteOffset":7428,
			"target":34962
		},
		{
			"buffer":0,
			"byteLength":2128,
			"byteOffset":10620,
			"target":34962
		},
		{
			"buffer":0,
			"byteLength":918,
			"byteOffset":12748,
			"target":34963
		}
	],
	"buffers":[
		{
			"byteLength":13668,
			"uri":"data:application/octet-stream;base64,"
		}
	]
}
